<?xml version="1.0" standalone="no"?>
<!DOCTYPE svg PUBLIC "-//W3C//DTD SVG 20010904//EN"
 "http://www.w3.org/TR/2001/REC-SVG-20010904/DTD/svg10.dtd">
<svg version="1.0" xmlns="http://www.w3.org/2000/svg"
 width="239.000000pt" height="239.000000pt" viewBox="0 0 239.000000 239.000000"
 preserveAspectRatio="xMidYMid meet">
<metadata>
Created by potrace 1.14, written by Peter Selinger 2001-2017
</metadata>
<g transform="translate(0.000000,239.000000) scale(0.100000,-0.100000)"
fill="#000000" stroke="none">
<path d="M702 1873 c-48 -23 -84 -76 -104 -152 -15 -58 -17 -108 -14 -403 1
-186 -1 -343 -5 -349 -11 -18 -151 -21 -198 -4 -141 49 -219 183 -183 316 22
86 21 94 -12 94 -46 0 -67 -46 -72 -150 -6 -126 32 -210 124 -281 80 -60 152
-79 325 -84 5 0 6 -4 3 -8 -3 -5 -8 -24 -11 -43 -3 -19 -10 -50 -16 -70 l-9
-37 -126 -3 -126 -4 -29 -33 c-53 -59 -32 -144 46 -182 98 -48 207 -7 280 103
l17 27 162 -5 c255 -8 426 -15 491 -20 33 -2 101 -7 150 -10 50 -3 118 -10
153 -16 69 -10 82 -7 82 20 0 32 -33 60 -75 65 -144 18 -197 22 -525 41 -25 2
-54 3 -64 4 -14 1 -7 9 25 32 81 57 214 203 292 320 72 108 170 298 197 382
17 54 21 47 34 -68 3 -27 8 -68 11 -90 5 -38 40 -246 49 -290 2 -11 12 -62 22
-114 14 -75 22 -95 38 -101 24 -9 64 22 70 55 7 36 76 200 171 410 64 140 180
382 192 400 13 19 14 18 9 -10 -9 -54 -19 -268 -20 -400 -1 -363 45 -590 139
-681 19 -18 43 -34 53 -35 9 0 27 -2 38 -5 19 -3 53 21 47 33 -5 9 -30 29 -55
45 -50 33 -97 169 -115 338 -15 136 -7 612 12 732 15 99 15 169 -1 193 -22 34
-65 34 -99 -2 -21 -23 -255 -478 -255 -496 0 -3 -18 -43 -39 -89 -22 -45 -57
-125 -79 -176 l-39 -92 -13 77 c-8 43 -14 80 -15 83 0 3 -5 31 -9 64 -4 32 -9
68 -11 80 -2 11 -6 48 -10 81 -3 33 -8 67 -10 75 -2 8 -6 43 -9 76 -15 156
-36 204 -91 204 -24 0 -35 -17 -35 -52 0 -31 -56 -191 -102 -292 -192 -417
-445 -676 -661 -676 l-64 0 18 67 c11 37 19 79 19 93 0 22 10 31 72 60 95 45
207 156 261 257 93 176 102 395 22 553 -30 60 -112 135 -161 149 -56 16 -124
13 -162 -6z m176 -97 c39 -25 87 -118 98 -191 23 -150 -28 -324 -133 -453 -34
-41 -140 -129 -147 -121 -5 6 -19 428 -17 529 1 105 8 155 29 200 32 70 96 84
170 36z m-431 -1186 c-46 -37 -90 -50 -118 -37 -13 7 -25 20 -27 29 -4 18 12
22 112 26 l60 3 -27 -21z"/>
</g>
</svg>
